<?xml version="1.0" encoding="UTF-8"?>
<svg version="1.1" xmlns="http://www.w3.org/2000/svg" viewBox="0 0 177 177" xmlns:xlink="http://www.w3.org/1999/xlink" xml:space="preserve">
<title>ApexCharts</title>
<path d="M0 0 C2.67813752 2.4150749 4.3043511 5.01052912 6.08203125 8.13671875 C6.97426392 9.69592041 6.97426392 9.69592041 7.88452148 11.28662109 C8.52075439 12.40891113 9.1569873 13.53120117 9.8125 14.6875 C10.82757796 16.46544112 11.84439976 18.24237764 12.86128235 20.01928711 C13.55607756 21.23365311 14.25031679 22.44833738 14.9440155 23.66333008 C18.23478895 29.42427305 21.5827993 35.15108121 24.9375 40.875 C30.35730756 50.13983215 35.69676392 59.44888174 41.01116943 68.77435303 C46.88248775 79.07449354 52.82790831 89.33001148 58.81640625 99.5625 C59.3283252 100.4390625 59.84024414 101.315625 60.36767578 102.21875 C61.5563451 104.2440747 62.75383496 106.26423033 63.95654297 108.28125 C64.91971436 109.90546875 64.91971436 109.90546875 65.90234375 111.5625 C66.49394287 112.55378906 67.08554199 113.54507813 67.69506836 114.56640625 C69 117 69 117 69 119 C65.79324529 119.2631068 62.58926334 119.4216804 59.375 119.5625 C58.01955078 119.67561523 58.01955078 119.67561523 56.63671875 119.79101562 C50.08123575 120.00634171 50.08123575 120.00634171 47.24121094 117.36303711 C45.61974978 114.98501862 44.30515816 112.56507888 43 110 C41.95068414 108.16378033 40.89848667 106.32920504 39.84375 104.49609375 C38.72620005 102.47820262 37.61175143 100.45859159 36.5 98.4375 C30.09270096 86.89428629 23.49526224 75.47417778 16.81152344 64.08935547 C13.57248243 58.56552463 10.34989654 53.03209612 7.125 47.5 C5.94017188 45.4687105 4.7552826 43.43745667 3.5703125 41.40625 C2.71354167 39.9375 1.85677083 38.46875 1 37 C-1.75746999 40.30538577 -4.02895473 43.58942457 -6.1015625 47.359375 C-6.66907227 48.38417969 -7.23658203 49.40898438 -7.82128906 50.46484375 C-8.41651367 51.54894531 -9.01173828 52.63304687 -9.625 53.75 C-14.87752174 63.22470969 -20.23086045 72.62009255 -25.77050781 81.92919922 C-28.06830594 85.7993191 -30.34488952 89.68194291 -32.625 93.5625 C-33.47127264 95.00135003 -34.31761877 96.44015686 -35.1640625 97.87890625 C-35.76992188 98.90886719 -36.37578125 99.93882812 -37 101 C-31.39 101 -25.78 101 -20 101 C-18.49480613 103.62214328 -16.99568681 106.24744208 -15.5 108.875 C-15.07074219 109.62136719 -14.64148438 110.36773437 -14.19921875 111.13671875 C-13.79316406 111.85214844 -13.38710937 112.56757813 -12.96875 113.3046875 C-12.40317383 114.2944458 -12.40317383 114.2944458 -11.82617188 115.30419922 C-11 117 -11 117 -11 119 C-29.81 119 -48.62 119 -68 119 C-66.60210955 115.50527389 -65.28283805 112.55006512 -63.453125 109.32421875 C-62.94539551 108.42662842 -62.43766602 107.52903809 -61.91455078 106.60424805 C-61.36524902 105.64172119 -60.81594727 104.67919434 -60.25 103.6875 C-59.67362793 102.67276611 -59.09725586 101.65803223 -58.50341797 100.61254883 C-53.26959599 91.4219122 -47.93975958 82.28811786 -42.59765625 73.16015625 C-38.89487003 66.82912974 -35.22512312 60.47932715 -31.5625 54.125 C-30.94439453 53.0529834 -30.32628906 51.9809668 -29.68945312 50.87646484 C-26.46827335 45.28790191 -23.2506719 39.69729231 -20.03515625 34.10546875 C-13.45768818 22.67475491 -6.85908871 11.26451968 0 0 Z " fill="#3C9CF3" transform="translate(88,29)"/>
<path d="M0 0 C0.66 0 1.32 0 2 0 C2.40202637 0.72888428 2.80405273 1.45776855 3.21826172 2.20874023 C10.96882159 16.24709382 18.78016579 30.22945383 27 44 C28.85862075 47.12237711 30.71157081 50.24805897 32.5625 53.375 C32.99280518 54.09574707 33.42311035 54.81649414 33.86645508 55.55908203 C35.51759014 58.34803895 36.97177151 60.91531454 38 64 C31.07 64 24.14 64 17 64 C16.04480469 62.34355469 15.08960937 60.68710938 14.10546875 58.98046875 C13.48414062 57.90369873 12.8628125 56.82692871 12.22265625 55.7175293 C10.8595415 53.35450248 9.49915659 50.989932 8.140625 48.62426758 C4.98046955 43.12688752 1.80368493 37.64349379 -1.48046875 32.21875 C-2.25136841 30.93254761 -2.25136841 30.93254761 -3.0378418 29.62036133 C-3.99228549 28.03227795 -4.95813617 26.45097896 -5.93676758 24.87768555 C-8.98947738 19.76464371 -8.98947738 19.76464371 -9.03515625 16.4453125 C-7.58881022 13.02866113 -5.83608155 9.871477 -3.9375 6.6875 C-3.56044922 6.04232422 -3.18339844 5.39714844 -2.79492188 4.73242188 C-1.86962507 3.15121848 -0.93567319 1.5750854 0 0 Z " fill="#6FDDA0" transform="translate(93,84)"/>
<path d="M0 0 C2.59829519 2.35108994 4.16522372 4.80805197 5.85546875 7.8671875 C6.39212158 8.82987549 6.92877441 9.79256348 7.48168945 10.78442383 C8.04460693 11.80431396 8.60752441 12.8242041 9.1875 13.875 C13.51096024 21.63547517 17.91474262 29.28960858 22.70703125 36.76953125 C24 39 24 39 24 41 C17.07 41 10.14 41 3 41 C1.01487932 37.58667032 -0.96326476 34.16961746 -2.9375 30.75 C-3.50146484 29.78191406 -4.06542969 28.81382812 -4.64648438 27.81640625 C-5.18466797 26.88183594 -5.72285156 25.94726562 -6.27734375 24.984375 C-6.77484131 24.12553711 -7.27233887 23.26669922 -7.78491211 22.38183594 C-8.92080458 20.15524021 -9.74399688 18.48222634 -10 16 C-9.19555664 14.07714844 -9.19555664 14.07714844 -7.91015625 12.109375 C-7.22856445 11.04589844 -7.22856445 11.04589844 -6.53320312 9.9609375 C-6.04787109 9.23132813 -5.56253906 8.50171875 -5.0625 7.75 C-4.58103516 7.00492187 -4.09957031 6.25984375 -3.60351562 5.4921875 C-2.41333186 3.65388387 -1.21204676 1.82393233 0 0 Z " fill="#F5B657" transform="translate(80,107)"/>
<path d="M0 0 C0.66 0.33 1.32 0.66 2 1 C0.52307692 5.67692308 0.52307692 5.67692308 -2.125 7.3125 C-3.053125 7.6528125 -3.053125 7.6528125 -4 8 C-2.87548273 5.0280615 -1.77706209 2.66559313 0 0 Z " fill="#70B6F5" transform="translate(88,29)"/>
</svg>
