<?xml version="1.0" standalone="no"?>
<!DOCTYPE svg PUBLIC "-//W3C//DTD SVG 20010904//EN"
 "http://www.w3.org/TR/2001/REC-SVG-20010904/DTD/svg10.dtd">
<svg version="1.0" xmlns="http://www.w3.org/2000/svg"
 viewBox="0 0 512.000000 352.000000"
 preserveAspectRatio="xMidYMid meet">
<title>AWS</title>

<g transform="translate(0.000000,512.000000) scale(0.100000,-0.100000)"
fill="#000000" stroke="none">
<path d="M748 4079 c-146 -12 -371 -82 -413 -129 -22 -24 -33 -147 -16 -178
15 -29 31 -28 131 9 134 49 239 70 348 70 272 0 362 -91 362 -369 0 -103 0
-104 -22 -99 -200 49 -429 56 -563 18 -99 -28 -172 -69 -235 -132 -170 -169
-168 -484 3 -650 182 -177 553 -154 766 47 l69 65 36 -65 c46 -83 96 -136 127
-136 29 0 152 81 174 114 14 21 13 27 -11 82 -60 134 -57 111 -64 544 -8 436
-11 464 -66 573 -91 178 -312 262 -626 236z m317 -869 c107 -20 98 -8 93 -129
-6 -124 -27 -179 -92 -243 -80 -78 -215 -124 -337 -115 -142 9 -219 95 -219
243 0 130 75 218 211 249 71 16 240 14 344 -5z"/>
<path d="M4216 4075 c-215 -41 -380 -190 -405 -366 -26 -188 73 -362 254 -445
39 -17 140 -53 225 -79 183 -56 246 -84 288 -128 66 -70 62 -188 -10 -253
-114 -105 -387 -110 -643 -13 -45 17 -93 29 -106 27 -23 -3 -24 -7 -27 -83 -2
-50 2 -88 9 -103 16 -29 111 -75 212 -101 306 -80 608 -29 767 130 154 154
167 414 29 564 -66 71 -143 110 -373 186 -295 97 -347 136 -347 254 0 85 28
127 116 167 45 21 64 23 200 23 147 -1 152 -2 257 -38 118 -41 143 -45 152
-21 10 26 7 144 -4 164 -47 87 -390 153 -594 115z"/>
<path d="M1622 4032 c-17 -17 -19 -26 -11 -59 9 -43 402 -1334 417 -1374 21
-54 34 -59 158 -59 64 0 124 5 136 11 11 6 25 25 32 42 7 18 71 276 142 575
83 351 132 536 136 525 5 -10 67 -263 139 -563 72 -299 136 -551 142 -560 22
-28 32 -30 154 -30 109 0 124 2 141 20 21 23 453 1399 452 1443 0 36 -30 47
-123 46 -97 -2 -127 -9 -148 -39 -11 -15 -79 -260 -164 -590 -80 -311 -148
-572 -151 -580 -4 -8 -66 237 -139 546 -73 309 -138 578 -145 598 -16 51 -40
60 -150 61 -109 0 -140 -7 -157 -34 -7 -10 -71 -270 -143 -577 -72 -308 -134
-567 -138 -577 -4 -11 -62 201 -151 550 -79 313 -150 580 -157 594 -18 36 -33
41 -150 46 -93 5 -103 4 -122 -15z"/>
</g>
</svg>
